<?xml version="1.0" standalone="no"?>
<!DOCTYPE svg PUBLIC "-//W3C//DTD SVG 20010904//EN"
 "http://www.w3.org/TR/2001/REC-SVG-20010904/DTD/svg10.dtd">
<svg version="1.0" xmlns="http://www.w3.org/2000/svg"
 width="512.000000pt" height="512.000000pt" viewBox="0 0 512.000000 512.000000"
 preserveAspectRatio="xMidYMid meet">

<g transform="translate(0.000000,512.000000) scale(0.100000,-0.100000)"
fill="#000000" stroke="none">
<path d="M2394 5095 c-225 -35 -416 -134 -585 -304 -151 -153 -238 -313 -281
-521 -29 -136 -21 -347 16 -475 53 -181 139 -327 268 -458 44 -44 78 -80 76
-81 -2 -2 -32 -13 -68 -26 -189 -67 -378 -188 -532 -342 l-107 -107 -343 -3
c-333 -3 -344 -4 -385 -25 -52 -28 -88 -75 -103 -133 -9 -40 3 -140 110 -868
66 -453 120 -826 120 -827 0 -2 -99 -5 -219 -7 l-219 -3 -43 -30 c-68 -49 -83
-89 -87 -235 -4 -142 5 -184 50 -236 49 -56 80 -67 201 -72 l107 -5 0 -91 c0
-108 20 -152 88 -201 l44 -30 2058 0 2058 0 44 30 c68 49 88 93 88 201 l0 91
108 5 c120 5 151 16 200 72 45 52 54 94 50 236 -4 146 -19 186 -87 235 l-43
30 -220 3 -220 3 6 32 c3 18 57 391 121 829 125 863 123 833 72 909 -12 19
-43 45 -67 59 l-45 25 -343 3 -343 3 -107 107 c-154 154 -343 276 -532 343
-36 12 -66 23 -68 25 -2 1 32 37 76 81 129 131 215 277 268 458 37 128 45 339
16 476 -24 118 -75 245 -138 347 -61 97 -216 255 -312 317 -226 145 -487 201
-748 160z m391 -164 c245 -63 472 -245 581 -466 65 -132 85 -209 91 -356 11
-261 -73 -481 -253 -663 -173 -175 -393 -266 -644 -266 -312 0 -591 150 -761
409 -101 155 -145 320 -136 520 7 150 22 213 87 346 123 255 364 436 653 491
98 18 279 11 382 -15z m-485 -1873 c74 -20 108 -23 260 -23 195 0 271 14 420
79 l76 33 89 -24 c180 -48 396 -166 535 -293 l55 -50 -1175 0 -1175 1 40 35
c174 155 354 254 555 308 l84 23 76 -33 c41 -18 113 -43 160 -56z m2293 -437
c13 -5 27 -17 30 -25 4 -9 -48 -385 -113 -836 -66 -452 -120 -825 -120 -831 0
-5 -686 -9 -1830 -9 -1126 0 -1830 4 -1830 9 0 5 -54 379 -120 830 -65 452
-117 828 -113 837 3 9 15 20 27 24 29 12 4038 13 4069 1z m349 -1868 c15 -14
18 -32 18 -124 0 -141 3 -139 -176 -139 -182 0 -177 4 -184 -174 -4 -107 -8
-139 -20 -146 -9 -6 -778 -10 -2021 -10 -1589 0 -2009 3 -2022 12 -13 11 -16
37 -19 146 -4 176 0 172 -182 172 -178 0 -176 -2 -176 137 0 85 3 110 17 125
15 17 103 18 2381 18 2187 0 2367 -1 2384 -17z"/>
<path d="M2465 2439 c-146 -22 -278 -89 -380 -194 -128 -130 -185 -260 -193
-436 -9 -209 51 -365 197 -509 142 -140 274 -195 471 -195 197 0 335 58 476
199 141 141 201 299 192 505 -8 180 -66 309 -200 443 -117 116 -257 179 -429
191 -41 3 -101 1 -134 -4z m229 -161 c110 -27 231 -113 294 -207 62 -94 84
-160 89 -276 4 -87 2 -110 -20 -176 -121 -379 -590 -492 -867 -210 -70 71
-119 158 -140 250 -18 76 -8 221 20 294 96 252 363 391 624 325z"/>
<path d="M2215 1930 c-195 -158 -195 -155 17 -328 83 -67 129 -80 160 -44 43
49 30 83 -61 157 l-70 58 69 56 c38 31 73 68 78 82 12 30 -7 83 -33 93 -39 15
-65 3 -160 -74z"/>
<path d="M2557 1988 c-19 -18 -35 -62 -73 -206 l-48 -182 21 -28 c23 -31 77
-41 107 -19 12 9 33 70 67 193 26 98 48 187 49 197 0 26 -45 67 -74 67 -14 0
-36 -10 -49 -22z"/>
<path d="M2737 1998 c-24 -19 -36 -59 -25 -88 5 -14 40 -50 78 -81 l69 -56
-70 -58 c-91 -74 -104 -108 -61 -157 31 -36 77 -23 160 44 136 111 162 138
162 169 0 35 -22 59 -145 159 -101 82 -133 94 -168 68z"/>
</g>
</svg>
