<?xml version="1.0" standalone="no"?>
<!DOCTYPE svg PUBLIC "-//W3C//DTD SVG 20010904//EN"
 "http://www.w3.org/TR/2001/REC-SVG-20010904/DTD/svg10.dtd">
<svg version="1.0" xmlns="http://www.w3.org/2000/svg"
 width="512.000000pt" height="512.000000pt" viewBox="0 0 512.000000 512.000000"
 preserveAspectRatio="xMidYMid meet">

<g transform="translate(0.000000,512.000000) scale(0.100000,-0.100000)"
fill="#000000" stroke="none">
<path d="M2315 5105 c-213 -47 -380 -194 -436 -383 -15 -50 -22 -55 -109 -72
-387 -74 -660 -388 -660 -759 l0 -80 -317 -3 -318 -3 -56 -26 c-69 -33 -127
-89 -160 -155 -20 -40 -24 -64 -24 -134 0 -89 19 -144 68 -197 l20 -22 -42
-46 c-78 -85 -104 -180 -77 -284 17 -65 34 -99 74 -143 l25 -27 -33 -38 c-48
-54 -73 -118 -74 -188 -1 -81 18 -142 65 -204 l39 -51 -35 -51 c-73 -106 -82
-221 -26 -331 l29 -57 -134 -256 c-74 -141 -134 -266 -134 -279 0 -57 90 -90
127 -47 8 11 71 124 138 253 112 212 125 233 146 230 13 -2 86 -6 161 -9 l138
-5 0 -147 c0 -169 11 -215 67 -280 54 -64 120 -93 225 -99 83 -4 87 -6 83 -26
-60 -251 -245 -1096 -245 -1116 0 -19 9 -36 26 -49 43 -33 86 -26 108 18 7 14
71 284 141 599 l129 572 45 0 46 0 65 -128 c71 -139 143 -224 232 -276 46 -27
439 -176 464 -176 7 0 25 11 40 23 34 30 38 82 7 107 -12 9 -99 45 -194 80
-327 118 -311 101 -527 531 l-163 324 -54 310 c-63 365 -64 355 36 355 72 0
124 -24 167 -75 29 -36 30 -39 35 -178 3 -98 11 -166 25 -219 75 -281 253
-514 499 -654 134 -76 259 -116 427 -134 55 -6 193 -37 310 -68 191 -51 221
-56 316 -56 124 -1 181 14 319 82 148 73 232 160 265 272 22 75 21 110 -20
463 -31 260 -37 344 -36 507 0 220 9 257 68 309 51 45 158 68 182 39 5 -7 13
-96 17 -197 4 -101 13 -207 20 -236 8 -29 54 -138 104 -241 106 -223 236 -540
263 -639 26 -96 33 -234 19 -335 -7 -46 -39 -163 -71 -260 -71 -212 -82 -290
-78 -519 3 -168 4 -173 27 -192 30 -24 62 -24 94 1 l25 20 4 222 4 223 61 185
c68 206 69 208 83 309 7 52 18 85 39 114 65 95 124 237 154 371 13 59 13 60
65 77 104 35 175 81 262 169 124 124 185 240 216 410 16 89 18 434 3 499 -28
123 -113 231 -221 281 l-68 32 0 359 0 360 -25 24 c-31 32 -69 32 -100 0 l-25
-24 0 -359 0 -359 -65 -32 c-63 -31 -108 -74 -136 -129 -7 -15 -14 -29 -15
-30 -6 -9 -93 60 -137 107 -87 93 -91 108 -98 406 -7 288 -14 325 -75 447 -53
105 -181 231 -289 285 -44 21 -91 42 -105 46 -25 7 -25 7 18 48 37 36 43 47
40 77 -4 44 -44 78 -81 68 -14 -3 -49 -27 -79 -52 -29 -25 -78 -61 -109 -80
-75 -45 -236 -108 -331 -129 l-78 -17 -33 36 c-19 19 -58 47 -88 61 -53 25
-57 25 -317 25 l-263 0 -52 33 c-29 19 -74 52 -100 75 -61 53 -90 61 -125 35
-36 -26 -42 -81 -12 -108 32 -29 24 -35 -43 -35 -89 0 -152 -24 -207 -79 -41
-41 -53 -66 -120 -243 l-75 -198 -156 0 -155 0 -22 53 c-12 29 -40 71 -62 92
l-40 39 0 111 c0 210 55 342 196 474 97 90 199 142 346 174 59 13 118 31 132
40 39 26 72 76 92 141 33 109 131 209 252 258 l57 23 625 0 c703 0 671 3 790
-76 70 -47 124 -116 151 -196 29 -81 44 -107 79 -137 31 -26 41 -29 180 -60
243 -54 445 -248 497 -477 8 -38 22 -76 30 -84 47 -48 116 -17 121 55 7 89
-64 257 -157 373 -102 128 -283 238 -456 278 -127 30 -129 31 -144 80 -48 164
-185 303 -361 367 l-75 27 -620 2 c-488 1 -633 -1 -680 -12z m646 -1192 c16
-9 35 -31 43 -48 21 -44 116 -287 116 -297 0 -4 -283 -8 -630 -8 -346 0 -630
4 -630 8 0 5 11 35 24 68 12 32 40 103 61 157 56 148 11 137 543 137 401 0
447 -2 473 -17z m727 -8 c145 -46 271 -152 332 -279 35 -74 38 -92 13 -80 -10
5 -182 11 -383 14 l-364 5 -48 120 c-26 66 -48 122 -48 125 0 3 38 15 85 27
47 12 122 37 167 56 101 42 144 44 246 12z m-2573 -256 c59 -17 112 -74 120
-132 6 -38 3 -55 -16 -94 -13 -27 -39 -58 -58 -70 -33 -23 -39 -23 -348 -23
-344 0 -346 0 -396 60 -30 35 -42 85 -33 136 9 47 67 110 114 122 52 14 567
15 617 1z m2884 -253 c52 -27 65 -60 69 -178 l4 -108 -582 0 -583 0 -67 24
c-212 77 -488 77 -700 0 -65 -23 -78 -24 -314 -24 -198 0 -246 3 -246 13 0 23
-60 106 -96 133 -18 15 -58 36 -87 48 l-53 21 18 43 19 42 1295 0 c1111 0
1299 -2 1323 -14z m-2626 -245 c73 -45 100 -154 54 -222 -12 -18 -38 -44 -56
-56 -32 -22 -43 -23 -232 -23 -193 0 -199 -1 -225 -23 -34 -30 -36 -83 -3
-109 19 -16 49 -18 293 -18 246 0 275 -2 314 -20 23 -10 42 -23 42 -29 0 -5
-13 -39 -30 -75 -16 -37 -35 -84 -41 -105 l-12 -39 -36 23 c-57 38 -118 55
-198 55 -107 0 -180 -37 -219 -112 l-15 -28 -270 0 c-304 0 -321 3 -364 69
-33 51 -40 100 -20 147 34 83 90 113 208 114 90 0 117 17 117 74 0 56 -35 76
-132 76 -121 0 -175 34 -199 123 -14 51 1 105 39 148 52 57 66 59 527 56 l420
-2 38 -24z m1344 -136 c497 -126 790 -650 637 -1137 -48 -153 -116 -262 -235
-378 -351 -344 -919 -339 -1268 11 -78 79 -132 157 -181 263 -63 134 -74 190
-75 366 0 178 13 241 76 378 135 293 419 494 734 520 116 10 207 3 312 -23z
m-947 -108 c-31 -28 -70 -69 -88 -90 l-32 -38 -48 27 c-26 15 -48 28 -49 29
-2 1 6 19 17 40 11 22 20 47 20 55 0 9 3 20 7 23 3 4 56 7 117 7 l111 0 -55
-53z m2295 41 c3 -7 4 -209 3 -448 l-3 -435 -42 84 c-49 97 -51 108 -61 352
-7 178 -9 188 -34 226 -37 56 -86 78 -178 78 -126 0 -218 -47 -291 -148 l-28
-38 -20 39 c-32 63 -136 195 -197 251 l-56 51 452 0 c351 0 452 -3 455 -12z
m783 -185 c47 -27 83 -75 107 -142 21 -61 21 -371 0 -479 -23 -116 -84 -231
-164 -312 -63 -63 -129 -110 -178 -125 l-23 -6 0 500 0 501 35 39 c58 64 138
73 223 24z m-469 -142 l61 -32 0 -473 c0 -379 -3 -491 -15 -562 -17 -98 -52
-214 -65 -214 -4 0 -11 17 -15 38 -3 20 -33 105 -66 187 l-59 151 0 513 0 513
49 -44 c27 -24 76 -59 110 -77z m-3336 -554 c15 -85 27 -159 27 -165 0 -9 -76
-12 -296 -12 -253 0 -301 2 -330 16 -64 30 -103 108 -90 179 9 45 68 112 110
124 17 5 148 10 292 10 l261 1 26 -153z m71 -388 c9 -33 43 -114 76 -179 33
-66 60 -124 60 -130 0 -6 -52 -10 -140 -10 -233 0 -250 16 -250 238 l0 142
118 0 119 0 17 -61z m2355 -239 c1 -110 -60 -183 -213 -256 -140 -65 -247 -78
-369 -43 l-39 10 109 54 c59 30 138 77 174 104 114 87 225 218 290 341 l23 45
12 -100 c7 -55 12 -125 13 -155z"/>
<path d="M2077 3808 c-42 -33 -37 -106 9 -127 17 -7 142 -11 403 -11 421 0
414 -1 427 67 5 26 1 37 -19 57 l-26 26 -389 0 c-295 0 -392 -3 -405 -12z"/>
<path d="M2327 2844 c-236 -57 -436 -243 -514 -479 -24 -71 -27 -95 -27 -220
0 -125 3 -149 27 -220 38 -115 91 -199 182 -290 137 -138 300 -205 498 -205
258 0 474 123 610 347 34 56 87 195 87 228 0 26 -46 65 -78 65 -38 0 -64 -31
-90 -109 -59 -177 -210 -319 -389 -366 -73 -19 -212 -19 -283 0 -244 65 -419
294 -420 547 0 89 15 158 55 243 63 136 172 238 311 291 84 32 232 43 315 24
170 -39 314 -157 391 -319 46 -99 72 -121 121 -102 60 23 61 72 2 188 -93 187
-260 322 -462 374 -91 23 -248 25 -336 3z"/>
<path d="M2370 640 c-25 -25 -26 -81 -2 -103 9 -8 129 -56 266 -106 137 -50
266 -102 287 -116 57 -37 89 -100 98 -191 6 -63 11 -80 30 -95 32 -26 67 -24
96 6 21 20 25 34 25 83 0 139 -85 288 -197 345 -58 30 -530 197 -556 197 -15
0 -36 -9 -47 -20z"/>
</g>
</svg>
